<?xml version="1.0" encoding="iso-8859-1"?>
<!-- Uploaded to: SVG Repo, www.svgrepo.com, Generator: SVG Repo Mixer Tools -->
<svg height="800px" width="800px" version="1.1" id="Layer_1" xmlns="http://www.w3.org/2000/svg" xmlns:xlink="http://www.w3.org/1999/xlink" 
	 viewBox="0 0 512 512" xml:space="preserve">
<path style="fill:#FA6E51;" d="M0,256.006C0,397.402,114.606,512.004,255.996,512C397.394,512.004,512,397.402,512,256.006
	C512.009,114.61,397.394,0,255.996,0C114.606,0,0,114.614,0,256.006z"/>
<path style="fill:#E8573F;" d="M512,256.005c0.001-27.116-4.246-53.231-12.055-77.757c-0.128-0.117-0.229-0.258-0.368-0.368
	c-0.34-0.429-0.708-0.798-1.137-1.137c-0.34-0.429-73.503-73.594-73.933-73.934c-1.298-1.638-3.218-2.756-5.471-2.756H92.965
	c-3.915,0-7.089,3.174-7.089,7.089v77.973c0,2.253,1.118,4.172,2.756,5.47c0.34,0.429,0.708,0.798,1.137,1.137
	c0.34,0.429,14.237,14.354,14.595,14.658H92.965c-3.915,0-7.089,3.173-7.089,7.088v85.061c0,2.254,1.117,4.173,2.755,5.471
	c0.34,0.429,0.708,0.797,1.137,1.137c0.34,0.429,14.237,14.353,14.595,14.657H92.965c-3.915,0-7.089,3.17-7.089,7.089v77.972
	c0,2.254,1.117,4.173,2.755,5.471c0.34,0.429,0.708,0.797,1.137,1.137c0.34,0.429,87.154,87.243,87.583,87.583
	c0.268,0.338,0.577,0.618,0.896,0.896c24.523,7.808,50.635,12.054,77.747,12.054C397.394,512.004,512,397.401,512,256.005z"/>
<g>
	<path style="fill:#F4F6F9;" d="M419.035,100.053H92.965c-3.915,0-7.088,3.174-7.088,7.088v77.973c0,3.915,3.174,7.088,7.088,7.088
		h326.069c3.915,0,7.088-3.174,7.088-7.088v-77.973C426.123,103.228,422.949,100.053,419.035,100.053z M411.947,178.027H100.053
		V114.23h311.893V178.027z"/>
	<path style="fill:#F4F6F9;" d="M419.035,206.381H92.965c-3.915,0-7.088,3.174-7.088,7.088v85.061c0,3.918,3.174,7.088,7.088,7.088
		h326.069c3.915,0,7.088-3.17,7.088-7.088v-85.061C426.123,209.554,422.949,206.381,419.035,206.381z M411.947,291.442H100.053
		v-70.884h311.893V291.442z"/>
	<path style="fill:#F4F6F9;" d="M419.035,319.796H92.965c-3.915,0-7.088,3.17-7.088,7.088v77.973c0,3.918,3.174,7.088,7.088,7.088
		h326.069c3.915,0,7.088-3.17,7.088-7.088v-77.973C426.123,322.966,422.949,319.796,419.035,319.796z M411.947,397.77H100.053
		v-63.796h311.893V397.77z"/>
</g>
</svg>